<svg width="81" height="65" viewBox="0 0 512 512" fill="none" xmlns="http://www.w3.org/2000/svg">
<path d="M90 362C90 378.538 103.462 392 120 392C136.538 392 150 378.538 150 362H90Z" fill="#222222"/>
<path d="M498.816 206.606L305.395 13.184C296.898 4.688 285.59 0 273.578 0H45C20.186 0 0 20.186 0 45V467C0 491.814 20.186 512 45 512H286C291.684 512 296.869 508.792 299.418 503.709C333.856 434.803 404.114 392 481.165 392H497C505.291 392 512 385.291 512 377V238.422C512 226.41 507.312 215.102 498.816 206.606ZM180 362C180 395.091 153.091 422 120 422C86.909 422 60 395.091 60 362V347C60 338.709 66.709 332 75 332H165C173.291 332 180 338.709 180 347V362ZM437 271H75C66.709 271 60 264.291 60 256V75C60 66.709 66.709 60 75 60H261.142C265.126 60 268.935 61.582 271.747 64.395L447.605 240.253C455.644 248.291 453.628 271 437 271Z" fill="#222222"/>
<path d="M254.931 90H90V241H405.931L254.931 90Z" fill="#FFC325"/>
</svg>
