<svg width="81" height="65" viewBox="0 0 460 512" fill="none" xmlns="http://www.w3.org/2000/svg">
<path d="M141.524 420.065L99.9011 353.178L62.2471 363.691C25.7741 373.936 0.349121 407.566 0.349121 445.381V501.271C0.349121 507.171 5.17612 511.999 11.0771 511.999H179.393L187.492 438.247C170.586 442.929 151.571 436.266 141.524 420.065V420.065Z" fill="#222222"/>
<path d="M397.752 363.637L360.152 353.124L318.529 420.118C308.274 436.584 288.582 442.966 272.508 438.194L280.607 512H448.922C454.822 512 459.65 507.173 459.65 501.272V445.382C459.651 407.567 434.227 373.936 397.752 363.637V363.637Z" fill="#222222"/>
<path d="M271.953 414.727C281.372 421.179 294.274 418.467 300.291 408.773L332.708 356.578L288.681 329.352L230.058 386.005H229.973L224.536 389.72L229.954 386.007L171.338 329.351L127.299 356.577L159.726 408.772C165.743 418.466 178.635 421.177 188.054 414.726L193.592 410.93L210.234 427.572L201.813 504.167H258.186L249.765 427.626L266.443 410.948L271.953 414.727Z" fill="#FFC325"/>
<path d="M99.9551 93.088C105.802 86.92 114.116 83.165 123.18 83.165H336.712C345.776 83.165 354.09 86.919 359.991 93.141C360.169 92.539 367.797 80.801 362.619 66.323C354.805 44.331 337.354 47.551 242.792 2.655C234.693 -0.885 225.414 -0.885 217.314 2.655C121.299 48.219 105.228 44.473 97.4341 66.269C92.1481 81.051 99.7661 92.433 99.9551 93.088V93.088Z" fill="#FFC325"/>
<path d="M336.712 104.621H123.18C118.246 104.621 113.954 107.946 112.774 112.774C109.487 126.005 109.126 134.923 109.126 146.62C109.126 154.13 112.106 161.434 118.711 166.987C121.243 254.488 150.108 281.993 189.211 315.206C197.708 322.469 208.545 326.467 219.727 326.467H240.431C251.614 326.467 262.452 322.468 270.937 315.213C309.14 282.656 338.488 256.248 341.322 166.947C347.141 162.006 350.924 154.662 350.924 146.244C350.924 136.804 350.924 127.953 347.115 112.72C345.939 107.946 341.647 104.621 336.712 104.621V104.621ZM257.011 298.894C252.396 302.84 246.508 305.012 240.432 305.012H219.728C213.652 305.012 207.764 302.841 203.126 298.873C172.353 272.756 144.275 251.771 140.405 173.331H141.308L166.464 197.736C177.406 208.356 191.835 214.203 207.122 214.203H252.982C268.215 214.203 282.643 208.356 293.585 197.79L318.848 173.331H319.608C315.704 248.407 291.01 269.94 257.011 298.894V298.894Z" fill="#222222"/>
</svg>
