<svg width="81" height="65" viewBox="0 0 482 512" fill="none" xmlns="http://www.w3.org/2000/svg">
<path d="M344.221 98.0077L323.009 119.22L344.221 140.432L365.433 119.22L344.221 98.0077Z" fill="#FFC325"/>
<path d="M451.299 98.0133L366.446 13.1603C348.899 -4.38675 320.353 -4.38675 302.806 13.1603L196.74 119.226C182.954 133.014 180.401 153.414 188.281 170.113L173.528 184.866C155.981 202.413 155.981 230.959 173.528 248.506L258.381 333.359C275.928 350.904 304.474 350.904 322.021 333.359L336.774 318.604C353.47 326.481 373.873 323.931 387.659 310.145L451.299 246.507C492.234 205.571 492.234 138.948 451.299 98.0133ZM419.479 193.473C416.459 196.493 358.657 254.295 355.841 257.111C349.978 262.974 340.489 262.974 334.626 257.111C331.642 254.127 252.45 174.935 249.773 172.258C243.912 166.397 243.912 156.908 249.773 151.045C252.757 148.061 331.971 68.8483 334.627 66.1913C340.49 60.3293 349.978 60.3303 355.841 66.1923C358.81 69.1623 416.679 127.032 419.479 129.832C437.026 147.38 437.026 175.926 419.479 193.473Z" fill="#222222"/>
<path d="M398.266 151.047L387.659 140.439L366.446 161.654L387.659 182.867L398.266 172.26C404.118 166.408 404.118 156.899 398.266 151.047Z" fill="#FFC325"/>
<path d="M302.803 140.448L281.59 161.661L302.803 182.873L324.016 161.66L302.803 140.448Z" fill="#FFC325"/>
<path d="M345.233 182.876L324.02 204.089L345.233 225.301L366.445 204.089L345.233 182.876Z" fill="#FFC325"/>
<path d="M141.707 259.112L131.671 274.264C128.853 277.082 127 280.892 127 284.871V312.012L99.862 312C95.883 312 92.073 313.575 89.255 316.393C86.448 319.2 85 323.308 85 327.285V355L57.426 355.009C49.139 355.009 43 361.436 43 369.721V398H14.998C6.713 398 0 403.862 0 412.149V497.002C0 501.146 1.677 504.894 4.393 507.607C7.107 510.323 10.855 512 14.998 512H99.851C103.828 512 107.64 510.425 110.458 507.607L247.772 365.177L141.707 259.112Z" fill="#222222"/>
</svg>
