<svg width="81" height="65" viewBox="0 0 452 512" fill="none" xmlns="http://www.w3.org/2000/svg">
<path d="M175.402 356.17L135.5 287.015L95.29 356.727C92.214 362.645 90.5 369.647 90.5 377C90.5 401.814 110.686 422 135.5 422C160.314 422 180.5 401.814 180.5 377C180.5 369.646 178.786 362.645 175.402 356.17Z" fill="#FFC325"/>
<path d="M406.5 0H297.922C285.91 0 274.602 4.688 266.106 13.184L219.289 60H45.5C20.686 60 0.5 80.186 0.5 105V467C0.5 491.814 20.686 512 45.5 512H406.5C431.314 512 451.5 491.814 451.5 467V45C451.5 20.186 431.314 0 406.5 0ZM135.5 452C94.147 452 60.5 418.353 60.5 377C60.5 364.944 63.444 352.933 68.996 342.283L122.507 249.5C127.868 240.213 143.132 240.213 148.493 249.5L201.696 341.727C207.555 352.933 210.5 364.945 210.5 377C210.5 418.353 176.853 452 135.5 452ZM376.5 452H285.5C277.209 452 270.5 445.291 270.5 437C270.5 428.709 277.209 422 285.5 422H376.5C384.791 422 391.5 428.709 391.5 437C391.5 445.291 384.791 452 376.5 452ZM376.5 392H285.5C277.209 392 270.5 385.291 270.5 377C270.5 368.709 277.209 362 285.5 362H376.5C384.791 362 391.5 368.709 391.5 377C391.5 385.291 384.791 392 376.5 392ZM376.5 332H285.5C277.209 332 270.5 325.291 270.5 317C270.5 308.709 277.209 302 285.5 302H376.5C384.791 302 391.5 308.709 391.5 317C391.5 325.291 384.791 332 376.5 332ZM391.5 135C391.5 143.291 384.791 150 376.5 150H250.358C244.294 150 238.815 146.353 236.501 140.742C234.172 135.132 235.461 128.687 239.753 124.395L299.753 64.395C302.566 61.582 306.374 60 310.358 60H376.5C384.791 60 391.5 66.709 391.5 75V135Z" fill="#222222"/>
<path d="M150.5 0H60.5C43.931 0 30.5 13.431 30.5 30H180.5C180.5 13.431 167.069 0 150.5 0Z" fill="#FFC325"/>
</svg>
